<?xml version="1.0" encoding="UTF-8"?>
<svg version="1.1" xmlns="http://www.w3.org/2000/svg" width="114" height="104">
<path d="M0 0 C2.89192544 1.50660232 5.6527983 3.13419443 8.41943359 4.85986328 C9.41273682 5.45089844 10.40604004 6.04193359 11.42944336 6.65087891 C14.33600757 8.38591618 17.22148367 10.1525178 20.10693359 11.92236328 C21.6179112 12.8229357 23.13072588 13.72043858 24.64599609 14.61376953 C27.1274277 16.07784125 29.59449047 17.56098368 32.04833984 19.07080078 C33.92427827 20.20642634 35.82421184 21.30477083 37.75927734 22.33642578 C41.42273278 24.33233296 42.9307773 25.47396544 44.48193359 29.42236328 C44.10693359 32.92236328 44.10693359 32.92236328 41.41943359 35.67236328 C40.32834711 36.4412679 39.2229241 37.19007288 38.10693359 37.92236328 C36.76935104 38.91667244 35.43504058 39.91543249 34.10693359 40.92236328 C34.74501953 41.34388672 35.38310547 41.76541016 36.04052734 42.19970703 C36.86681641 42.74755859 37.69310547 43.29541016 38.54443359 43.85986328 C39.36814453 44.40513672 40.19185547 44.95041016 41.04052734 45.51220703 C43.10693359 46.92236328 43.10693359 46.92236328 44.10693359 47.92236328 C44.16943359 51.17236328 44.16943359 51.17236328 43.10693359 54.92236328 C40.28690454 57.4146258 36.97204014 59.92236328 33.10693359 59.92236328 C33.10693359 60.58236328 33.10693359 61.24236328 33.10693359 61.92236328 C33.82880859 62.19048828 34.55068359 62.45861328 35.29443359 62.73486328 C40.78809301 65.05440837 40.78809301 65.05440837 43.10693359 66.92236328 C44.29443359 70.29736328 44.29443359 70.29736328 44.10693359 73.92236328 C40.14738788 77.73726805 35.81773094 80.39112301 30.98193359 82.98486328 C23.53249242 87.06589998 16.25747305 91.3988212 9.02246094 95.84838867 C1.00366686 100.72844388 -6.24284699 105.00087208 -15.89306641 102.92236328 C-21.26945016 100.73895961 -26.19780627 97.61660722 -31.13720703 94.60107422 C-34.23307274 92.71525099 -37.3506873 90.8686785 -40.47119141 89.02392578 C-44.87694692 86.40968434 -49.27873433 83.78935712 -53.66650391 81.14501953 C-55.03427979 80.32142944 -55.03427979 80.32142944 -56.4296875 79.48120117 C-60.91272182 76.64431573 -60.91272182 76.64431573 -62.89306641 74.92236328 C-63.39306641 71.98486328 -63.39306641 71.98486328 -62.89306641 68.92236328 C-60.21184213 65.41614692 -56.59042189 63.27522586 -52.89306641 60.92236328 C-53.53115234 60.50083984 -54.16923828 60.07931641 -54.82666016 59.64501953 C-55.65294922 59.09716797 -56.47923828 58.54931641 -57.33056641 57.98486328 C-58.56613281 57.16695312 -58.56613281 57.16695312 -59.82666016 56.33251953 C-62.81551999 54.29286282 -62.81551999 54.29286282 -63.45556641 51.23486328 C-62.78982471 47.31438438 -62.09342146 46.91220865 -59.01806641 44.60986328 C-57.00929572 43.2382833 -55.06782264 42.0097414 -52.89306641 40.92236328 C-53.61494141 40.48666016 -54.33681641 40.05095703 -55.08056641 39.60205078 C-56.00869141 39.00650391 -56.93681641 38.41095703 -57.89306641 37.79736328 C-58.82119141 37.21728516 -59.74931641 36.63720703 -60.70556641 36.03955078 C-62.89306641 33.92236328 -62.89306641 33.92236328 -63.51806641 30.99267578 C-62.68779954 26.91398979 -60.97698695 25.67502344 -57.89306641 22.92236328 C-55.87412033 21.60360168 -53.80561172 20.35859134 -51.70166016 19.18017578 C-51.11570572 18.84871552 -50.52975128 18.51725525 -49.92604065 18.17575073 C-48.06512888 17.12518399 -46.1981731 16.08597263 -44.33056641 15.04736328 C-42.49640471 14.01724096 -40.66356068 12.9848002 -38.83071899 11.95233154 C-37.62381302 11.2732201 -36.41611417 10.59551573 -35.20761108 9.91925049 C-30.19379347 7.11031013 -25.24179968 4.2055582 -20.3034668 1.265625 C-14.11394864 -2.18365373 -6.6169859 -2.46475745 0 0 Z " fill="#E9325C" transform="translate(62.89306640625,1.07763671875)"/>
<path d="M0 0 C2.89192544 1.50660232 5.6527983 3.13419443 8.41943359 4.85986328 C9.41273682 5.45089844 10.40604004 6.04193359 11.42944336 6.65087891 C14.33600757 8.38591618 17.22148367 10.1525178 20.10693359 11.92236328 C21.6179112 12.8229357 23.13072588 13.72043858 24.64599609 14.61376953 C27.1274277 16.07784125 29.59449047 17.56098368 32.04833984 19.07080078 C33.92427827 20.20642634 35.82421184 21.30477083 37.75927734 22.33642578 C41.42273278 24.33233296 42.9307773 25.47396544 44.48193359 29.42236328 C44.10693359 32.92236328 44.10693359 32.92236328 41.66943359 35.67236328 C38.71491878 37.7710876 35.68494101 38.90554495 32.27880859 40.07080078 C27.25838248 42.03924123 22.79586229 45.21691168 18.25927734 48.09423828 C-5.20249997 62.97019885 -5.20249997 62.97019885 -12.34619141 62.53955078 C-21.16036967 60.40359961 -31.05745757 54.76337295 -37.89306641 48.92236328 C-37.89306641 48.26236328 -37.89306641 47.60236328 -37.89306641 46.92236328 C-38.67681641 46.77798828 -39.46056641 46.63361328 -40.26806641 46.48486328 C-42.89306641 45.92236328 -42.89306641 45.92236328 -44.89306641 44.92236328 C-44.89306641 44.26236328 -44.89306641 43.60236328 -44.89306641 42.92236328 C-45.93720703 42.78314453 -45.93720703 42.78314453 -47.00244141 42.64111328 C-50.49072229 41.77375695 -53.06586278 40.27171718 -56.14306641 38.42236328 C-57.20009766 37.79330078 -58.25712891 37.16423828 -59.34619141 36.51611328 C-61.89306641 34.92236328 -61.89306641 34.92236328 -62.89306641 33.92236328 C-63.26806641 31.17236328 -63.26806641 31.17236328 -62.89306641 27.92236328 C-59.58363158 24.09747197 -56.09278094 21.63962644 -51.70166016 19.18017578 C-51.11570572 18.84871552 -50.52975128 18.51725525 -49.92604065 18.17575073 C-48.06512888 17.12518399 -46.1981731 16.08597263 -44.33056641 15.04736328 C-42.49640471 14.01724096 -40.66356068 12.9848002 -38.83071899 11.95233154 C-37.62381302 11.2732201 -36.41611417 10.59551573 -35.20761108 9.91925049 C-30.19379347 7.11031013 -25.24179968 4.2055582 -20.3034668 1.265625 C-14.11394864 -2.18365373 -6.6169859 -2.46475745 0 0 Z " fill="#03ADEE" transform="translate(62.89306640625,1.07763671875)"/>
<path d="M0 0 C3.41388694 1.13796231 5.24418118 2.70348432 8 5 C8.94875 5.598125 9.8975 6.19625 10.875 6.8125 C13 9 13 9 13.3125 12.4375 C11.68732544 16.84868808 9.88374737 17.90953642 5.91015625 20.15234375 C4 21 4 21 2 21 C2 21.66 2 22.32 2 23 C0.783125 23.4125 -0.43375 23.825 -1.6875 24.25 C-4.549492 25.30627121 -6.20580228 26.16660185 -8.625 28.125 C-11.43160175 30.34073823 -13.48427085 30.67295543 -17 31 C-17 31.66 -17 32.32 -17 33 C-21 35 -25 37 -29 39 C-29.98484375 39.55429688 -30.9696875 40.10859375 -31.984375 40.6796875 C-35.42914823 42.18789132 -37.88081806 42.36949574 -41.625 42.3125 C-42.73101562 42.30863281 -43.83703125 42.30476563 -44.9765625 42.30078125 C-47.86111799 42.01381643 -49.55500569 41.49681359 -52 40 C-52 39.34 -52 38.68 -52 38 C-52.928125 37.855625 -53.85625 37.71125 -54.8125 37.5625 C-58 37 -58 37 -61 36 C-61 35.34 -61 34.68 -61 34 C-62.134375 33.731875 -63.26875 33.46375 -64.4375 33.1875 C-65.613125 32.795625 -66.78875 32.40375 -68 32 C-68.33 31.01 -68.66 30.02 -69 29 C-71.80376352 27.87050779 -71.80376352 27.87050779 -75 27 C-76.67163195 26.34588315 -78.34015202 25.68346682 -80 25 C-80 24.34 -80 23.68 -80 23 C-80.56332031 22.896875 -81.12664062 22.79375 -81.70703125 22.6875 C-84.43024371 21.87100018 -86.34818519 20.6085206 -88.6875 19 C-89.47511719 18.46375 -90.26273437 17.9275 -91.07421875 17.375 C-93.92962121 15.33625423 -93.92962121 15.33625423 -94.5625 12.3125 C-93.90823358 8.45959775 -93.29044182 8.00492089 -90.3125 5.6875 C-87.2599557 3.63993067 -84.76973652 2 -81 2 C-78.1875 2.9375 -78.1875 2.9375 -76 4 C-76 4.66 -76 5.32 -76 6 C-73.69 6.66 -71.38 7.32 -69 8 C-69 8.66 -69 9.32 -69 10 C-68.319375 10.2475 -67.63875 10.495 -66.9375 10.75 C-62.53893409 12.62173017 -58.48264739 15.08345434 -54.421875 17.59375 C-48.58512564 21.05014906 -43.82467499 23.6866218 -37 22 C-30.03094619 19.23247273 -23.98371509 15.45845438 -18 11 C-16.35094247 10.04862065 -14.70100332 9.09816318 -13.03125 8.18359375 C-9.39466978 6.06458643 -5.93690828 3.65279402 -2.453125 1.29296875 C-1.64359375 0.86628906 -0.8340625 0.43960938 0 0 Z " fill="#A23791" transform="translate(94,40)"/>
<path d="M0 0 C8.78735923 4.17276835 17.07492745 8.90678599 25.34667969 14.00732422 C26.77086109 14.86242191 28.23045698 15.658027 29.6953125 16.44140625 C33.34570146 18.42360671 34.83146512 19.57100213 36.375 23.5 C36 27 36 27 33.5625 29.75 C30.61170923 31.84607896 27.58762727 32.98235272 24.18359375 34.140625 C19.8224135 35.85701079 15.95756115 38.51757986 12 41 C10.22310863 42.09467845 8.44393024 43.18558453 6.66479492 44.27661133 C4.10694699 45.8463505 1.55344297 47.42310889 -1 49 C-1.75 47.25 -1.75 47.25 -2 45 C1.23187041 40.6936376 6.12074248 38.55302174 10.77929688 36.08789062 C15.26219003 33.63608175 19.87121467 30.97380499 21.76953125 25.97265625 C21.84584446 22.58018711 21.71566296 20.75029181 19.3046875 18.22265625 C17.2614145 16.68077681 15.19368401 15.31704929 13 14 C12.01 13.34 11.02 12.68 10 12 C10 10.68 10 9.36 10 8 C8.8553125 7.5978125 8.8553125 7.5978125 7.6875 7.1875 C5.09118877 6.04029271 3.8749652 5.05353332 2 3 C1.34 2.67 0.68 2.34 0 2 C0 1.34 0 0.68 0 0 Z " fill="#1391CF" transform="translate(71,7)"/>
<path d="M0 0 C3.91931483 2.13143418 5.57833219 3.37978876 7.24609375 7.625 C6.87109375 11.125 6.87109375 11.125 4.3203125 13.57421875 C0.86500452 16.2690332 -2.83984676 18.36701119 -6.69140625 20.4375 C-13.15980176 23.97282438 -19.38873969 27.75063746 -25.5546875 31.7890625 C-26.40417969 32.22992188 -27.25367187 32.67078125 -28.12890625 33.125 C-29.11890625 32.795 -30.10890625 32.465 -31.12890625 32.125 C-28.12890625 30.125 -28.12890625 30.125 -26.12890625 30.125 C-26.12890625 29.465 -26.12890625 28.805 -26.12890625 28.125 C-25.13890625 28.125 -24.14890625 28.125 -23.12890625 28.125 C-23.06703125 27.2175 -23.00515625 26.31 -22.94140625 25.375 C-22.12890625 22.125 -22.12890625 22.125 -20.06640625 19.875 C-16.41804128 17.70150597 -13.28208967 16.96971527 -9.12890625 16.125 C-9.12890625 15.465 -9.12890625 14.805 -9.12890625 14.125 C-8.46890625 14.125 -7.80890625 14.125 -7.12890625 14.125 C-7.14050781 13.42632812 -7.15210937 12.72765625 -7.1640625 12.0078125 C-7.17308594 11.09773438 -7.18210937 10.18765625 -7.19140625 9.25 C-7.20300781 8.34507813 -7.21460937 7.44015625 -7.2265625 6.5078125 C-7.12890625 4.125 -7.12890625 4.125 -6.12890625 2.125 C-8.76890625 2.785 -11.40890625 3.445 -14.12890625 4.125 C-10.6392169 -1.10953402 -5.9703793 -2.45388067 0 0 Z " fill="#D15061" transform="translate(100.12890625,63.875)"/>
<path d="M0 0 C3.41388694 1.13796231 5.24418118 2.70348432 8 5 C8.94875 5.598125 9.8975 6.19625 10.875 6.8125 C13 9 13 9 13.3125 12.4375 C11.68732544 16.84868808 9.88374737 17.90953642 5.91015625 20.15234375 C4 21 4 21 2 21 C2 21.66 2 22.32 2 23 C-1.63 23.66 -5.26 24.32 -9 25 C-8.236875 24.2575 -7.47375 23.515 -6.6875 22.75 C-5.800625 21.8425 -4.91375 20.935 -4 20 C-3.401875 19.401875 -2.80375 18.80375 -2.1875 18.1875 C-0.32083816 14.74891239 -0.74952799 11.88231615 -1 8 C-1.33 7.34 -1.66 6.68 -2 6 C-5.41021743 6.78697325 -8.68885166 7.87119943 -12 9 C-9.89281648 5.83922473 -8.71084255 5.08785662 -5.4375 3.375 C-2.52697344 1.95320996 -2.52697344 1.95320996 0 0 Z " fill="#8F5784" transform="translate(94,40)"/>
<path d="M0 0 C8.78735923 4.17276835 17.07492745 8.90678599 25.34667969 14.00732422 C26.77086109 14.86242191 28.23045698 15.658027 29.6953125 16.44140625 C33.34570146 18.42360671 34.83146512 19.57100213 36.375 23.5 C36 27 36 27 33.375 29.875 C30.26487552 31.83322652 28.51625525 32.43595905 25 33 C24.85304688 31.33710937 24.85304688 31.33710937 24.703125 29.640625 C24.5530084 28.17698816 24.40191535 26.71345124 24.25 25.25 C24.188125 24.52039063 24.12625 23.79078125 24.0625 23.0390625 C23.70615278 19.77254628 23.28901306 17.40489419 21.36328125 14.70703125 C18.39083145 12.559989 15.25313657 10.96964774 11.9375 9.4375 C4.72232846 6.07935515 4.72232846 6.07935515 2 3 C1.34 2.67 0.68 2.34 0 2 C0 1.34 0 0.68 0 0 Z " fill="#3A94C2" transform="translate(71,7)"/>
<path d="M0 0 C0.33 0.66 0.66 1.32 1 2 C0.01 3.485 0.01 3.485 -1 5 C-1.66 5 -2.32 5 -3 5 C-3.08378906 5.763125 -3.16757813 6.52625 -3.25390625 7.3125 C-4.16997678 10.61227238 -5.06912769 11.22554121 -7.9375 13 C-8.73929688 13.49757813 -9.54109375 13.99515625 -10.3671875 14.5078125 C-14.4951154 16.84737995 -18.70959382 18.9757165 -23 21 C-23.375 18.75 -23.375 18.75 -23 16 C-20.4375 13.9375 -20.4375 13.9375 -17 12 C-16.40856201 11.65751221 -15.81712402 11.31502441 -15.20776367 10.9621582 C-13.47950801 9.96141543 -11.73992078 8.98032108 -10 8 C-4.31933146 4.78395973 -4.31933146 4.78395973 0 0 Z " fill="#0797D6" transform="translate(92,35)"/>
<path d="M0 0 C2.475 0.99 2.475 0.99 5 2 C5.875 5.1875 5.875 5.1875 6 9 C2.70179137 12.61232374 -0.08509137 14.56633159 -5 15 C-5 13.02 -5 11.04 -5 9 C-4.0409375 8.7215625 -4.0409375 8.7215625 -3.0625 8.4375 C-0.57873787 7.05753944 -0.57873787 7.05753944 -0.25 3.375 C-0.1675 2.26125 -0.085 1.1475 0 0 Z " fill="#419FD1" transform="translate(101,25)"/>
<path d="M0 0 C1.5 1 1.5 1 3 3 C3.85859088 9.54675544 3.85859088 9.54675544 1.9453125 12.78515625 C0.10664286 14.99917561 -1.96642185 16.96642185 -4 19 C-2.35 18.67 -0.7 18.34 1 18 C-0.61762902 21.23525804 -3.84317595 22.4913704 -7 24 C-9.9375 24.75 -9.9375 24.75 -12 25 C-12.4375 22.8125 -12.4375 22.8125 -12 20 C-8.9889684 17.00515674 -6.29788387 15 -2 15 C0.08989546 9.68670645 1.6112798 5.71271928 0 0 Z " fill="#984889" transform="translate(91,45)"/>
<path d="M0 0 C4.15614642 1.38538214 6.92807792 3.92807792 10 7 C9.01 7 8.02 7 7 7 C6.34 8.32 5.68 9.64 5 11 C-0.875 8.25 -0.875 8.25 -2 6 C-5.41021743 6.78697325 -8.68885166 7.87119943 -12 9 C-9.89281648 5.83922473 -8.71084255 5.08785662 -5.4375 3.375 C-2.52697344 1.95320996 -2.52697344 1.95320996 0 0 Z " fill="#7E6392" transform="translate(94,40)"/>
<path d="M0 0 C2.68574128 1.44431669 5.25825179 2.95895197 7.80078125 4.640625 C4.79046381 5.57486145 3.93427857 5.68512411 0.80078125 4.640625 C0.47078125 3.980625 0.14078125 3.320625 -0.19921875 2.640625 C-4.35163498 0.37567069 -8.56609859 0.03401155 -13.19921875 0.640625 C-15.63603005 1.47873306 -17.86056145 2.54008039 -20.19921875 3.640625 C-21.18921875 3.640625 -22.17921875 3.640625 -23.19921875 3.640625 C-23.19921875 4.300625 -23.19921875 4.960625 -23.19921875 5.640625 C-24.51921875 5.310625 -25.83921875 4.980625 -27.19921875 4.640625 C-18.29069989 -0.66657773 -10.08826703 -4.28658965 0 0 Z " fill="#4BB6DA" transform="translate(63.19921875,1.359375)"/>
<path d="M0 0 C-0.66 2.31 -1.32 4.62 -2 7 C-2.66 7 -3.32 7 -4 7 C-3.67 7.99 -3.34 8.98 -3 10 C-4.32 10.33 -5.64 10.66 -7 11 C-7 10.34 -7 9.68 -7 9 C-7.66 9 -8.32 9 -9 9 C-8.875 6.75 -8.875 6.75 -8 4 C-2.91891892 0 -2.91891892 0 0 0 Z " fill="#01AEEC" transform="translate(9,23)"/>
<path d="M0 0 C1.65161581 0.75836443 3.29617138 1.53212076 4.9375 2.3125 C5.85402344 2.74175781 6.77054687 3.17101562 7.71484375 3.61328125 C10 5 10 5 11 8 C10.01 9.485 10.01 9.485 9 11 C5.7 8.69 2.4 6.38 -1 4 C-0.67 2.68 -0.34 1.36 0 0 Z " fill="#0298D5" transform="translate(82,15)"/>
<path d="M0 0 C-1.09898702 3.29696105 -1.94597387 4.04670589 -4.5625 6.1875 C-5.20316406 6.71730469 -5.84382812 7.24710938 -6.50390625 7.79296875 C-6.99761719 8.19128906 -7.49132812 8.58960938 -8 9 C-6.48052501 12.36748512 -5.47899158 13.60840337 -2 15 C-2 15.66 -2 16.32 -2 17 C-8.04942966 14.87452471 -8.04942966 14.87452471 -10 12 C-10.6875 9.1875 -10.6875 9.1875 -10 6 C-7.293549 3.293549 -3.97968559 0 0 0 Z " fill="#A25092" transform="translate(10,43)"/>
<path d="M0 0 C0.66 0.33 1.32 0.66 2 1 C1.78515625 2.828125 1.78515625 2.828125 1 5 C-1.06640625 6.484375 -1.06640625 6.484375 -3.5625 7.75 C-4.80193359 8.39195313 -4.80193359 8.39195313 -6.06640625 9.046875 C-6.70449219 9.36140625 -7.34257813 9.6759375 -8 10 C-8.2421875 7.6796875 -8.2421875 7.6796875 -8 5 C-6.3203125 3.3828125 -6.3203125 3.3828125 -4.125 2.125 C-3.40570313 1.69445313 -2.68640625 1.26390625 -1.9453125 0.8203125 C-1.30335937 0.54960938 -0.66140625 0.27890625 0 0 Z " fill="#07A0E0" transform="translate(77,46)"/>
<path d="M0 0 C0.99 0.66 1.98 1.32 3 2 C2.75 5.375 2.75 5.375 2 9 C-0.0625 10.4375 -0.0625 10.4375 -2 11 C-3.67830848 7.64338305 -2.6353188 4.63864406 -2 1 C-1.34 0.67 -0.68 0.34 0 0 Z " fill="#A25A95" transform="translate(104,47)"/>
<path d="M0 0 C2.475 0.99 2.475 0.99 5 2 C4.75 5.375 4.75 5.375 4 9 C2.02 9.99 2.02 9.99 0 11 C0 7.37 0 3.74 0 0 Z " fill="#368BCB" transform="translate(96,23)"/>
<path d="M0 0 C12.66970387 6.15034169 12.66970387 6.15034169 18 10 C17.01 10.495 17.01 10.495 16 11 C13.50390625 10.109375 13.50390625 10.109375 10.5625 8.75 C9.59441406 8.31171875 8.62632813 7.8734375 7.62890625 7.421875 C5.23987487 6.12973916 3.81085932 4.97145541 2 3 C1.34 2.67 0.68 2.34 0 2 C0 1.34 0 0.68 0 0 Z " fill="#3CA5C8" transform="translate(71,7)"/>
<path d="M0 0 C0.99 0.33 1.98 0.66 3 1 C3 3.64 3 6.28 3 9 C1.35 9.33 -0.3 9.66 -2 10 C-1.34 6.7 -0.68 3.4 0 0 Z " fill="#11AAE4" transform="translate(102,27)"/>
<path d="M0 0 C0.66 0.33 1.32 0.66 2 1 C1.505 1.350625 1.01 1.70125 0.5 2.0625 C-1.73063966 4.94374289 -1.19980621 7.47009026 -1 11 C-0.01 11.33 0.98 11.66 2 12 C1.01 12.495 1.01 12.495 0 13 C-2 11.875 -2 11.875 -4 10 C-4.5 7.0625 -4.5 7.0625 -4 4 C-2 1.625 -2 1.625 0 0 Z " fill="#D35573" transform="translate(4,66)"/>
<path d="M0 0 C1.485 0.99 1.485 0.99 3 2 C3.1875 5.625 3.1875 5.625 3 9 C1.68 9 0.36 9 -1 9 C-0.67 6.03 -0.34 3.06 0 0 Z " fill="#E23658" transform="translate(102,68)"/>
<path d="M0 0 C0 0.66 0 1.32 0 2 C-0.99 2.33 -1.98 2.66 -3 3 C-3.33 3.99 -3.66 4.98 -4 6 C-6.5625 7.1875 -6.5625 7.1875 -9 8 C-8.01437243 4.68470727 -7.34552581 3.25050621 -4.5 1.1875 C-2 0 -2 0 0 0 Z " fill="#44B7DD" transform="translate(9,23)"/>
<path d="M0 0 C0.66 0.33 1.32 0.66 2 1 C0.35 2.98 -1.3 4.96 -3 7 C-3.99 6.34 -4.98 5.68 -6 5 C-4.06745228 2.9754262 -2.36841312 1.57894208 0 0 Z " fill="#D93368" transform="translate(72,74)"/>
<path d="M0 0 C0.66 0.33 1.32 0.66 2 1 C-2.30769231 5.92307692 -2.30769231 5.92307692 -5.8125 6.3125 C-6.8953125 6.1578125 -6.8953125 6.1578125 -8 6 C-5.54080489 3.3651481 -3.42227589 1.25483449 0 0 Z " fill="#7055A7" transform="translate(80,49)"/>
<path d="M0 0 C0.33 0 0.66 0 1 0 C1.226875 0.928125 1.45375 1.85625 1.6875 2.8125 C3.22428705 6.54469713 4.52758945 7.1724155 8 9 C8 9.66 8 10.32 8 11 C1.95057034 8.87452471 1.95057034 8.87452471 0 6 C-0.1875 2.8125 -0.1875 2.8125 0 0 Z " fill="#A45E98" transform="translate(0,49)"/>
<path d="M0 0 C2.97 0.495 2.97 0.495 6 1 C6 1.66 6 2.32 6 3 C7.32 3.66 8.64 4.32 10 5 C9.01 5.495 9.01 5.495 8 6 C1.29411765 2.58823529 1.29411765 2.58823529 0 0 Z " fill="#3090D8" transform="translate(29,51)"/>
<path d="M0 0 C0.66 0.33 1.32 0.66 2 1 C-2.455 3.97 -2.455 3.97 -7 7 C-7.66 6.67 -8.32 6.34 -9 6 C-3.375 1.125 -3.375 1.125 0 0 Z " fill="#AE4879" transform="translate(90,63)"/>
<path d="M0 0 C0.66 0.66 1.32 1.32 2 2 C1.8125 4.5 1.8125 4.5 1 7 C0.01 7.66 -0.98 8.32 -2 9 C-2 6.36 -2 3.72 -2 1 C-1.34 0.67 -0.68 0.34 0 0 Z " fill="#9F4190" transform="translate(104,47)"/>
<path d="M0 0 C0.33 0.99 0.66 1.98 1 3 C2.98 3 4.96 3 7 3 C3.375 6 3.375 6 0 6 C0 4.02 0 2.04 0 0 Z " fill="#46A4D1" transform="translate(96,34)"/>
<path d="M0 0 C0.33 0 0.66 0 1 0 C1 1.65 1 3.3 1 5 C0.67 5 0.34 5 0 5 C0 3.35 0 1.7 0 0 Z " fill="#CC4C66" transform="translate(108,70)"/>
<path d="M0 0 C0.33 0 0.66 0 1 0 C1 1.65 1 3.3 1 5 C0.67 5 0.34 5 0 5 C0 3.35 0 1.7 0 0 Z " fill="#A15D77" transform="translate(108,49)"/>
<path d="M0 0 C0.33 0 0.66 0 1 0 C1 1.65 1 3.3 1 5 C0.67 5 0.34 5 0 5 C0 3.35 0 1.7 0 0 Z " fill="#4C7FCC" transform="translate(108,29)"/>
<path d="M0 0 C0.99 0.495 0.99 0.495 2 1 C1.01 1.495 1.01 1.495 0 2 C0 1.34 0 0.68 0 0 Z " fill="#B81C9C" transform="translate(98,61)"/>
<path d="M0 0 C0.99 0.495 0.99 0.495 2 1 C1.01 1.495 1.01 1.495 0 2 C0 1.34 0 0.68 0 0 Z " fill="#4E9CB1" transform="translate(7,41)"/>
<path d="M0 0 C2 1 2 1 2 1 Z " fill="#FF007F" transform="translate(41,102)"/>
<path d="M0 0 C2 1 2 1 2 1 Z " fill="#FF0000" transform="translate(65,101)"/>
<path d="M0 0 C2 1 2 1 2 1 Z " fill="#BF007F" transform="translate(36,99)"/>
<path d="M0 0 C2 1 2 1 2 1 Z " fill="#D4002A" transform="translate(70,98)"/>
<path d="M0 0 C2 1 2 1 2 1 Z " fill="#FF4040" transform="translate(31,96)"/>
<path d="M0 0 C2 1 2 1 2 1 Z " fill="#BF7F7F" transform="translate(29,95)"/>
<path d="M0 0 C2 1 2 1 2 1 Z " fill="#BF00BF" transform="translate(80,92)"/>
<path d="M0 0 C2 1 2 1 2 1 Z " fill="#BF007F" transform="translate(24,92)"/>
<path d="M0 0 C2 1 2 1 2 1 Z " fill="#BF007F" transform="translate(85,89)"/>
<path d="M0 0 C2 1 2 1 2 1 Z " fill="#FF007F" transform="translate(19,89)"/>
<path d="M0 0 C2 1 2 1 2 1 Z " fill="#404040" transform="translate(88,87)"/>
<path d="M0 0 C2 1 2 1 2 1 Z " fill="#D42A2A" transform="translate(95,83)"/>
<path d="M0 0 C2 1 2 1 2 1 Z " fill="#FF0000" transform="translate(9,83)"/>
<path d="M0 0 C2 1 2 1 2 1 Z " fill="#BF007F" transform="translate(7,82)"/>
<path d="M0 0 C2 1 2 1 2 1 Z " fill="#BF4040" transform="translate(99,81)"/>
<path d="M0 0 C2 1 2 1 2 1 Z " fill="#FF007F" transform="translate(101,80)"/>
<path d="M0 0 C2 1 2 1 2 1 Z " fill="#FF0000" transform="translate(2,79)"/>
<path d="M0 0 C2 1 2 1 2 1 Z " fill="#BF007F" transform="translate(101,64)"/>
<path d="M0 0 C2 1 2 1 2 1 Z " fill="#FF0000" transform="translate(4,64)"/>
<path d="M0 0 C2 1 2 1 2 1 Z " fill="#7F007F" transform="translate(100,60)"/>
<path d="M0 0 C2 1 2 1 2 1 Z " fill="#404040" transform="translate(3,59)"/>
<path d="" fill="#7F007F" transform="translate(0,0)"/>
<path d="M0 0 C2 1 2 1 2 1 Z " fill="#BF00BF" transform="translate(102,44)"/>
<path d="M0 0 C2 1 2 1 2 1 Z " fill="#BF00BF" transform="translate(3,44)"/>
<path d="M0 0 C2 1 2 1 2 1 Z " fill="#404040" transform="translate(100,43)"/>
<path d="M0 0 C2 1 2 1 2 1 Z " fill="#7373CC" transform="translate(97,41)"/>
<path d="M0 0 C2 1 2 1 2 1 Z " fill="#007FFF" transform="translate(101,39)"/>
<path d="M0 0 C2 1 2 1 2 1 Z " fill="#00BFBF" transform="translate(2,38)"/>
<path d="" fill="#007FFF" transform="translate(0,0)"/>
<path d="M0 0 C2 1 2 1 2 1 Z " fill="#40407F" transform="translate(101,23)"/>
<path d="M0 0 C2 1 2 1 2 1 Z " fill="#007FFF" transform="translate(7,21)"/>
<path d="M0 0 C2 1 2 1 2 1 Z " fill="#00BFFF" transform="translate(12,18)"/>
<path d="M0 0 C2 1 2 1 2 1 Z " fill="#007FFF" transform="translate(91,17)"/>
<path d="M0 0 C2 1 2 1 2 1 Z " fill="#00BFFF" transform="translate(17,15)"/>
<path d="M0 0 C2 1 2 1 2 1 Z " fill="#00BFBF" transform="translate(86,14)"/>
<path d="M0 0 C2 1 2 1 2 1 Z " fill="#0040BF" transform="translate(84,13)"/>
<path d="M0 0 C2 1 2 1 2 1 Z " fill="#007FFF" transform="translate(24,11)"/>
<path d="M0 0 C2 1 2 1 2 1 Z " fill="#007F7F" transform="translate(79,10)"/>
<path d="M0 0 C2 1 2 1 2 1 Z " fill="#00BFBF" transform="translate(29,8)"/>
<path d="M0 0 C2 1 2 1 2 1 Z " fill="#00BFBF" transform="translate(74,7)"/>
<path d="M0 0 C2 1 2 1 2 1 Z " fill="#007FFF" transform="translate(31,7)"/>
<path d="M0 0 C2 1 2 1 2 1 Z " fill="#00BFBF" transform="translate(69,4)"/>
<path d="M0 0 C2 1 2 1 2 1 Z " fill="#00BFBF" transform="translate(36,4)"/>
<path d="M0 0 C2 1 2 1 2 1 Z " fill="#00BFFF" transform="translate(41,1)"/>
<path d="M0 0 C2 1 2 1 2 1 Z " fill="#00FFFF" transform="translate(62,0)"/>
<path d="M0 0 C2 1 2 1 2 1 Z " fill="#007FFF" transform="translate(43,0)"/>
<path d="" fill="#FF00FF" transform="translate(0,0)"/>
<path d="" fill="#FFFFFF" transform="translate(0,0)"/>
<path d="" fill="#FF8080" transform="translate(0,0)"/>
<path d="" fill="#FF0080" transform="translate(0,0)"/>
<path d="" fill="#800000" transform="translate(0,0)"/>
<path d="" fill="#808080" transform="translate(0,0)"/>
<path d="" fill="#808080" transform="translate(0,0)"/>
<path d="" fill="#800080" transform="translate(0,0)"/>
<path d="" fill="#FF0000" transform="translate(0,0)"/>
<path d="" fill="#FF8080" transform="translate(0,0)"/>
<path d="" fill="#808080" transform="translate(0,0)"/>
<path d="" fill="#FF0000" transform="translate(0,0)"/>
<path d="" fill="#808080" transform="translate(0,0)"/>
<path d="" fill="#800080" transform="translate(0,0)"/>
<path d="" fill="#FF8080" transform="translate(0,0)"/>
<path d="" fill="#FF8080" transform="translate(0,0)"/>
<path d="" fill="#800080" transform="translate(0,0)"/>
<path d="" fill="#FF0080" transform="translate(0,0)"/>
<path d="" fill="#808080" transform="translate(0,0)"/>
<path d="" fill="#FF8080" transform="translate(0,0)"/>
<path d="" fill="#AA5555" transform="translate(0,0)"/>
<path d="" fill="#800080" transform="translate(0,0)"/>
<path d="" fill="#FF8080" transform="translate(0,0)"/>
<path d="" fill="#FF0000" transform="translate(0,0)"/>
<path d="" fill="#FF0000" transform="translate(0,0)"/>
<path d="" fill="#808080" transform="translate(0,0)"/>
<path d="" fill="#FF0080" transform="translate(0,0)"/>
<path d="" fill="#808080" transform="translate(0,0)"/>
<path d="" fill="#FF0080" transform="translate(0,0)"/>
<path d="" fill="#FF0000" transform="translate(0,0)"/>
<path d="" fill="#FF0080" transform="translate(0,0)"/>
<path d="" fill="#808080" transform="translate(0,0)"/>
<path d="" fill="#800080" transform="translate(0,0)"/>
<path d="" fill="#FF0000" transform="translate(0,0)"/>
<path d="" fill="#800080" transform="translate(0,0)"/>
<path d="" fill="#FF00FF" transform="translate(0,0)"/>
<path d="" fill="#FF0000" transform="translate(0,0)"/>
<path d="" fill="#FF8080" transform="translate(0,0)"/>
<path d="" fill="#FF0000" transform="translate(0,0)"/>
<path d="" fill="#FFFFFF" transform="translate(0,0)"/>
<path d="" fill="#FFFFFF" transform="translate(0,0)"/>
<path d="" fill="#FFFFFF" transform="translate(0,0)"/>
<path d="" fill="#FFFFFF" transform="translate(0,0)"/>
<path d="" fill="#AA5555" transform="translate(0,0)"/>
<path d="" fill="#800080" transform="translate(0,0)"/>
<path d="" fill="#808080" transform="translate(0,0)"/>
<path d="" fill="#FF8080" transform="translate(0,0)"/>
<path d="" fill="#BF4080" transform="translate(0,0)"/>
<path d="" fill="#AA5555" transform="translate(0,0)"/>
<path d="" fill="#808080" transform="translate(0,0)"/>
<path d="" fill="#800080" transform="translate(0,0)"/>
<path d="" fill="#808080" transform="translate(0,0)"/>
<path d="" fill="#AA5555" transform="translate(0,0)"/>
<path d="" fill="#808080" transform="translate(0,0)"/>
<path d="" fill="#808080" transform="translate(0,0)"/>
<path d="" fill="#808080" transform="translate(0,0)"/>
<path d="" fill="#000000" transform="translate(0,0)"/>
<path d="" fill="#FF00FF" transform="translate(0,0)"/>
<path d="" fill="#800080" transform="translate(0,0)"/>
<path d="" fill="#800080" transform="translate(0,0)"/>
<path d="" fill="#808080" transform="translate(0,0)"/>
<path d="" fill="#808080" transform="translate(0,0)"/>
<path d="" fill="#808080" transform="translate(0,0)"/>
<path d="" fill="#808080" transform="translate(0,0)"/>
<path d="" fill="#8080FF" transform="translate(0,0)"/>
<path d="" fill="#0080FF" transform="translate(0,0)"/>
<path d="" fill="#00FFFF" transform="translate(0,0)"/>
<path d="" fill="#0080FF" transform="translate(0,0)"/>
<path d="" fill="#0000FF" transform="translate(0,0)"/>
<path d="" fill="#00FFFF" transform="translate(0,0)"/>
<path d="" fill="#0000FF" transform="translate(0,0)"/>
<path d="" fill="#00FFFF" transform="translate(0,0)"/>
<path d="" fill="#0000FF" transform="translate(0,0)"/>
<path d="" fill="#0080FF" transform="translate(0,0)"/>
<path d="" fill="#00FFFF" transform="translate(0,0)"/>
<path d="" fill="#00FFFF" transform="translate(0,0)"/>
<path d="" fill="#00FFFF" transform="translate(0,0)"/>
<path d="" fill="#00FFFF" transform="translate(0,0)"/>
<path d="" fill="#0080FF" transform="translate(0,0)"/>
<path d="" fill="#0000FF" transform="translate(0,0)"/>
<path d="" fill="#0080FF" transform="translate(0,0)"/>
<path d="" fill="#808080" transform="translate(0,0)"/>
<path d="" fill="#0080FF" transform="translate(0,0)"/>
<path d="" fill="#008080" transform="translate(0,0)"/>
<path d="" fill="#00FFFF" transform="translate(0,0)"/>
<path d="" fill="#0080FF" transform="translate(0,0)"/>
<path d="" fill="#008080" transform="translate(0,0)"/>
<path d="" fill="#0080FF" transform="translate(0,0)"/>
<path d="" fill="#008080" transform="translate(0,0)"/>
<path d="" fill="#8080FF" transform="translate(0,0)"/>
<path d="" fill="#008080" transform="translate(0,0)"/>
<path d="" fill="#0080FF" transform="translate(0,0)"/>
<path d="" fill="#008080" transform="translate(0,0)"/>
<path d="" fill="#00FFFF" transform="translate(0,0)"/>
<path d="" fill="#0080FF" transform="translate(0,0)"/>
<path d="" fill="#008080" transform="translate(0,0)"/>
<path d="" fill="#0080FF" transform="translate(0,0)"/>
<path d="" fill="#008080" transform="translate(0,0)"/>
<path d="" fill="#8080FF" transform="translate(0,0)"/>
<path d="" fill="#008080" transform="translate(0,0)"/>
<path d="" fill="#0080FF" transform="translate(0,0)"/>
<path d="" fill="#008080" transform="translate(0,0)"/>
<path d="" fill="#0080FF" transform="translate(0,0)"/>
<path d="" fill="#0080FF" transform="translate(0,0)"/>
<path d="" fill="#0080FF" transform="translate(0,0)"/>
<path d="" fill="#00AAFF" transform="translate(0,0)"/>
<path d="" fill="#8080FF" transform="translate(0,0)"/>
<path d="" fill="#0080FF" transform="translate(0,0)"/>
<path d="" fill="#0080FF" transform="translate(0,0)"/>
<path d="" fill="#0080FF" transform="translate(0,0)"/>
<path d="" fill="#00AAAA" transform="translate(0,0)"/>
</svg>
